<?xml version="1.0" encoding="utf-8"?>
<!-- Generator: Adobe Illustrator 28.3.0, SVG Export Plug-In . SVG Version: 6.00 Build 0)  -->
<svg version="1.1" id="Layer_1" xmlns="http://www.w3.org/2000/svg" xmlns:xlink="http://www.w3.org/1999/xlink" x="0px" y="0px"
	 viewBox="0 0 40 40" style="enable-background:new 0 0 40 40;" xml:space="preserve">
<style type="text/css">
	.st0{fill:#61DAFB;}
</style>
<g>
	<path class="st0" d="M20,16.5c-1.9,0-3.5,1.6-3.5,3.5s1.6,3.5,3.5,3.5s3.5-1.6,3.5-3.5S21.9,16.5,20,16.5z"/>
	<path class="st0" d="M39.6,20c0-2.8-3.3-5.1-8.2-6.5c1.2-5.1,0.8-9.1-1.6-10.4C27.9,2,25,2.7,21.7,5.3c-0.6,0.5-1.1,1-1.7,1.6
		c-0.6-0.6-1.1-1.1-1.7-1.6C15,2.7,12.1,1.8,10.2,3c-1.9,1.1-2.7,4.1-2.1,8.2c0.1,0.7,0.2,1.5,0.5,2.3c-5,1.5-8.2,3.9-8.2,6.5
		c0,2.8,3.3,5.1,8.2,6.5c-1.2,5.1-0.8,9.1,1.6,10.4c0.6,0.4,1.2,0.5,1.9,0.5c2.2,0,5.1-1.6,7.9-4.4c2.9,2.8,5.7,4.4,7.9,4.4
		c0.7,0,1.3-0.1,1.9-0.5c2.4-1.3,2.8-5.3,1.6-10.4C36.4,25.2,39.6,22.7,39.6,20z M22.8,6.5c1.9-1.6,3.7-2.4,5.1-2.4
		c0.5,0,0.8,0.1,1.2,0.2c1.6,0.8,1.8,4.1,0.7,8.6c-1.6-0.4-3.4-0.6-5.2-0.8c-1.1-1.5-2.2-2.9-3.3-4.1C21.7,7.5,22.3,7,22.8,6.5z
		 M25.4,23.1c-0.6,1.1-1.2,2.1-1.9,3c-1.1,0.1-2.3,0.1-3.6,0.1c-1.2,0-2.4,0-3.6-0.1c-0.6-1-1.3-1.9-1.9-3c-0.6-1.1-1.2-2.1-1.7-3.1
		c0.5-1.1,1.1-2.1,1.7-3.1c0.6-1.1,1.2-2.1,1.9-3c1.1-0.1,2.3-0.1,3.6-0.1c1.2,0,2.4,0,3.6,0.1c0.6,1,1.3,1.9,1.9,3
		c0.6,1.1,1.2,2.2,1.7,3.1C26.7,21.1,26,22,25.4,23.1z M28.1,22c0.5,1.2,0.8,2.3,1.2,3.4c-1.1,0.2-2.3,0.5-3.5,0.6
		c0.4-0.6,0.8-1.3,1.2-1.9C27.4,23.4,27.7,22.6,28.1,22z M20,30.7c-0.7-0.8-1.6-1.7-2.3-2.8c0.7,0,1.5,0,2.3,0c0.7,0,1.6,0,2.3,0
		C21.6,28.9,20.7,29.9,20,30.7z M14.2,25.9c-1.2-0.1-2.4-0.4-3.5-0.6c0.4-1.1,0.7-2.2,1.2-3.4c0.4,0.7,0.7,1.3,1.1,2.1
		C13.5,24.7,13.8,25.3,14.2,25.9z M11.9,17.9c-0.5-1.1-0.8-2.3-1.2-3.4c1.1-0.2,2.3-0.5,3.5-0.6c-0.4,0.6-0.8,1.3-1.2,1.9
		C12.6,16.6,12.3,17.3,11.9,17.9z M20,9.2c0.7,0.8,1.6,1.8,2.3,2.8c-0.7,0-1.5,0-2.3,0c-0.7,0-1.6,0-2.3,0C18.4,11,19.3,10.1,20,9.2
		z M27,16c-0.4-0.7-0.8-1.3-1.2-1.9c1.2,0.1,2.4,0.4,3.5,0.6c-0.4,1.1-0.7,2.2-1.2,3.4C27.7,17.3,27.4,16.6,27,16z M9.8,10.9
		c-0.5-3.4-0.1-5.7,1.2-6.4c0.4-0.2,0.7-0.2,1.2-0.2c1.3,0,3,0.8,5.1,2.4c0.5,0.5,1.1,1,1.6,1.5c-1.1,1.2-2.3,2.7-3.3,4.1
		c-1.8,0.1-3.6,0.5-5.2,0.8C10.1,12.2,10,11.5,9.8,10.9z M2.1,20c0-1.8,2.7-3.6,7-5c0.5,1.6,1.1,3.3,1.9,5c-0.7,1.7-1.5,3.4-1.9,5
		C4.6,23.7,2.1,21.8,2.1,20z M11.1,35.6c-1.6-0.8-1.8-4.1-0.7-8.6c1.6,0.4,3.4,0.6,5.2,0.8c1.1,1.6,2.2,2.9,3.3,4.1
		C15.5,35.1,12.6,36.4,11.1,35.6z M28.9,35.6c-1.6,0.8-4.5-0.5-7.7-3.6c1.1-1.2,2.2-2.5,3.3-4.1c1.8-0.1,3.6-0.5,5.2-0.8
		C30.9,31.3,30.5,34.6,28.9,35.6z M30.9,24.9c-0.5-1.6-1.1-3.3-1.9-5c0.7-1.7,1.5-3.4,1.9-5c4.4,1.2,7,3.1,7,5
		C37.9,21.8,35.4,23.7,30.9,24.9z"/>
</g>
</svg>
